<?xml version="1.0" standalone="no"?>
<!DOCTYPE svg PUBLIC "-//W3C//DTD SVG 20010904//EN"
 "http://www.w3.org/TR/2001/REC-SVG-20010904/DTD/svg10.dtd">
<svg version="1.0" xmlns="http://www.w3.org/2000/svg"
 width="900.000000pt" height="900.000000pt" viewBox="0 0 900.000000 900.000000"
 preserveAspectRatio="xMidYMid meet">
<metadata>
Created by potrace 1.14, written by Peter Selinger 2001-2017
</metadata>
<g transform="translate(0.000000,900.000000) scale(0.100000,-0.100000)"
fill="#000000" stroke="none">
<path d="M1993 7419 c-178 -30 -374 -174 -452 -334 -49 -99 -67 -201 -53 -300
20 -138 84 -230 200 -287 40 -20 63 -23 152 -23 97 0 110 2 170 31 91 43 184
117 205 160 38 80 -4 189 -81 214 -60 20 -117 8 -176 -38 -68 -52 -100 -66
-132 -58 -24 6 -26 10 -26 64 0 74 39 145 108 196 97 71 177 84 260 45 78 -38
117 -154 145 -434 12 -112 13 -228 7 -580 -18 -1089 30 -1358 289 -1615 222
-220 524 -271 816 -136 94 43 154 85 232 159 33 32 63 55 66 50 2 -4 10 -26
17 -48 21 -67 121 -233 178 -295 38 -43 64 -63 93 -70 80 -22 165 27 190 108
16 56 3 100 -56 177 -68 90 -129 223 -175 383 l-41 142 15 73 c22 108 82 473
105 637 59 431 71 782 34 961 -36 169 -103 273 -211 326 -51 25 -67 28 -162
28 -99 0 -109 -2 -172 -33 -180 -89 -251 -299 -214 -637 22 -207 122 -702 232
-1157 l45 -186 -22 -44 c-88 -175 -241 -298 -409 -328 -128 -23 -246 17 -345
116 -65 64 -129 188 -149 289 -38 185 -41 257 -41 980 -1 721 -2 765 -40 964
-34 176 -99 309 -188 387 -57 50 -169 101 -247 114 -74 11 -94 11 -167 -1z
m1760 -806 c48 -109 50 -376 5 -767 -8 -72 -14 -103 -20 -90 -12 30 -78 377
-94 494 -15 119 -18 266 -5 323 12 49 37 77 71 77 22 0 30 -8 43 -37z"/>
<path d="M4520 6696 c-105 -30 -158 -74 -204 -165 -69 -137 -90 -273 -90 -586
0 -337 31 -677 114 -1270 48 -340 56 -440 41 -570 -12 -104 -57 -312 -70 -319
-4 -3 -56 11 -117 30 -299 95 -513 104 -670 28 -68 -34 -162 -121 -192 -180
-22 -44 -52 -173 -52 -228 0 -155 97 -314 232 -380 80 -39 123 -42 178 -14
117 60 114 221 -5 278 -63 30 -85 62 -85 121 0 67 16 95 68 120 39 19 55 21
141 16 84 -5 257 -43 339 -74 l24 -9 -40 -50 c-53 -67 -117 -121 -161 -135
-84 -28 -127 -89 -118 -167 12 -108 112 -165 225 -128 128 43 237 142 384 349
12 17 21 15 153 -41 77 -33 241 -105 365 -160 382 -169 590 -221 882 -222 216
0 377 33 538 113 114 55 242 179 289 280 80 169 80 381 -1 547 -43 88 -159
203 -253 252 -147 75 -270 102 -470 102 -167 1 -255 -14 -385 -66 -260 -103
-399 -309 -330 -491 42 -112 130 -171 219 -147 48 13 110 78 113 118 2 51 -3
87 -18 110 -14 21 -13 24 13 48 41 38 133 82 210 100 97 23 322 15 415 -15 84
-27 154 -74 193 -129 28 -40 30 -52 33 -141 3 -89 1 -103 -22 -148 -113 -225
-566 -288 -1016 -141 -36 11 -200 80 -365 153 -165 73 -326 143 -358 156 -49
19 -58 27 -54 44 2 11 16 63 30 116 70 262 74 448 18 851 -42 301 -82 630
-103 843 -7 72 -13 263 -13 425 0 251 3 307 18 372 28 120 64 139 105 57 14
-28 27 -80 33 -135 15 -129 25 -158 63 -192 66 -57 153 -52 217 14 l34 35 0
112 c-1 234 -93 420 -242 494 -65 31 -181 40 -253 19z"/>
<path d="M4582 2439 c-12 -5 -26 -19 -32 -31 -7 -18 -46 -219 -51 -265 0 -4
-11 52 -24 124 -31 174 -31 173 -64 173 -56 0 -58 -14 -21 -213 28 -147 39
-186 57 -204 27 -28 53 -29 82 -5 18 14 26 42 43 140 12 67 25 119 28 115 4
-5 16 -57 26 -118 19 -116 40 -155 82 -155 49 0 61 27 97 218 38 196 37 222
-9 222 -34 0 -43 -16 -55 -100 -7 -41 -17 -104 -23 -140 l-11 -65 -23 130
c-13 72 -28 140 -33 151 -11 25 -38 34 -69 23z"/>
<path d="M5389 2434 c-44 -18 -71 -62 -71 -117 -1 -64 23 -100 86 -130 58 -27
77 -57 55 -83 -10 -12 -28 -15 -73 -12 l-61 3 -3 -32 c-3 -27 2 -34 27 -47 71
-37 169 -7 197 59 34 83 9 149 -77 195 -48 25 -59 36 -59 56 0 31 23 40 71 27
41 -11 56 -6 59 17 6 38 -2 52 -35 66 -43 17 -70 17 -116 -2z"/>
<path d="M5655 2443 c-81 -23 -118 -134 -70 -210 8 -11 39 -33 69 -47 58 -28
77 -56 55 -83 -11 -12 -26 -14 -71 -9 -64 6 -83 -8 -67 -52 11 -30 53 -45 111
-39 63 5 93 27 113 81 32 82 2 147 -86 192 -28 14 -52 31 -56 40 -13 35 44 57
87 34 45 -24 71 38 31 74 -20 18 -82 29 -116 19z"/>
<path d="M6575 2436 c-50 -22 -68 -51 -73 -114 -5 -69 15 -100 88 -137 57 -29
64 -38 55 -72 -6 -25 -7 -26 -71 -19 -70 7 -82 -1 -70 -47 7 -29 44 -47 99
-47 104 0 166 102 123 205 -11 26 -29 41 -75 65 -50 25 -61 35 -61 55 0 33 23
41 72 28 31 -8 42 -8 54 4 27 27 10 66 -37 82 -41 14 -67 13 -104 -3z"/>
<path d="M7013 2439 c-164 -49 -178 -368 -20 -428 64 -24 164 -4 186 37 12 22
15 160 5 186 -5 12 -21 16 -69 16 -55 0 -65 -3 -70 -20 -10 -33 4 -60 31 -60
21 0 24 -4 24 -40 0 -48 -16 -58 -61 -40 -42 18 -62 62 -63 138 0 104 54 151
137 121 54 -20 67 -15 67 27 0 24 -6 38 -23 49 -30 19 -103 27 -144 14z"/>
<path d="M2576 2424 c-3 -9 -6 -82 -6 -162 0 -170 14 -218 71 -247 50 -26 131
-16 169 20 41 39 50 79 50 225 l1 125 49 -104 c44 -92 50 -111 50 -170 0 -72
17 -111 50 -111 32 0 50 39 50 109 0 55 7 78 45 162 25 54 46 104 47 111 1 7
4 -69 7 -170 7 -218 4 -212 119 -212 81 0 112 11 112 40 0 43 -10 50 -71 50
l-59 0 0 45 0 45 44 0 c50 0 69 16 64 57 -3 26 -6 28 -55 31 l-53 3 0 40 0 39
49 0 c67 0 93 26 75 74 -5 13 -24 16 -106 16 -91 0 -100 -2 -105 -20 -3 -11
-8 -20 -12 -20 -3 0 -12 9 -19 20 -7 11 -23 20 -36 20 -20 0 -28 -12 -57 -82
l-33 -82 -38 83 c-35 77 -40 82 -65 79 -17 -2 -32 -12 -39 -27 l-12 -24 -4 24
c-2 18 -10 25 -31 27 -52 6 -57 -7 -57 -162 0 -155 -9 -186 -55 -186 -46 0
-55 31 -55 185 0 96 -4 145 -12 153 -17 17 -65 15 -72 -4z"/>
<path d="M3426 2418 c-13 -18 -16 -56 -16 -210 l0 -188 25 -12 c47 -21 55 -1
55 141 l0 126 59 -125 c66 -143 90 -167 139 -140 l27 16 0 204 0 205 -32 3
c-28 3 -33 0 -39 -24 -4 -15 -4 -79 -1 -143 l7 -116 -60 129 c-33 71 -65 135
-71 143 -19 22 -76 16 -93 -9z"/>
<path d="M3871 2421 c-7 -12 -11 -93 -11 -205 0 -180 1 -185 22 -200 25 -18
153 -22 177 -7 9 6 24 5 38 -2 30 -13 48 3 60 53 9 34 10 35 66 38 l56 3 11
-39 c12 -47 32 -66 60 -57 41 13 41 36 4 171 -58 214 -64 232 -80 248 -21 22
-77 20 -97 -2 -9 -10 -36 -89 -59 -176 -39 -143 -45 -157 -63 -152 -11 3 -39
6 -62 6 l-43 0 -2 168 -3 167 -32 3 c-23 2 -34 -2 -42 -17z m389 -238 c0 -2
-16 -3 -35 -3 -38 0 -40 5 -26 60 5 19 12 49 16 65 7 27 9 23 26 -45 10 -41
18 -76 19 -77z"/>
<path d="M4859 2413 c-6 -17 -9 -99 -7 -206 4 -213 0 -207 118 -207 83 0 100
9 100 50 0 38 -18 50 -72 50 l-48 0 0 151 c0 84 -5 159 -10 170 -7 12 -21 19
-41 19 -23 0 -32 -6 -40 -27z"/>
<path d="M5090 2421 c-6 -12 -10 -96 -10 -205 0 -221 -3 -216 122 -216 97 0
125 20 98 71 -9 15 -22 19 -70 19 l-60 0 0 45 0 45 50 0 c44 0 52 3 62 26 19
40 1 58 -61 62 l-51 3 0 40 0 39 53 0 c28 0 57 4 63 8 18 12 24 42 14 63 -9
17 -22 19 -105 19 -83 0 -96 -2 -105 -19z"/>
<path d="M5940 2421 c-6 -12 -10 -96 -10 -205 l0 -186 25 -16 c33 -21 142 -13
189 14 103 60 130 256 49 353 -37 44 -80 59 -167 59 -64 0 -77 -3 -86 -19z
m176 -96 c12 -13 24 -43 28 -67 13 -91 -30 -168 -95 -168 l-29 0 0 136 0 136
38 -6 c20 -4 47 -18 58 -31z"/>
<path d="M6270 2421 c-6 -12 -10 -95 -10 -200 0 -223 -1 -221 119 -221 83 0
111 12 111 49 0 30 -22 41 -82 41 l-58 0 0 44 0 45 51 3 c59 3 76 20 65 61 -6
25 -10 27 -61 27 l-55 0 0 40 0 40 54 0 c57 0 86 16 86 49 0 33 -22 41 -117
41 -81 0 -94 -2 -103 -19z"/>
<path d="M6777 2433 c-13 -12 -8 -408 5 -421 19 -19 45 -14 62 10 13 18 16 56
16 201 0 104 -4 186 -10 198 -10 19 -59 27 -73 12z"/>
<path d="M7239 2424 c-11 -13 -15 -60 -17 -192 -4 -196 -1 -218 29 -227 41
-13 49 9 49 144 l1 126 64 -132 c52 -110 68 -133 89 -139 39 -9 72 17 79 63
10 60 8 319 -3 347 -7 18 -17 26 -34 26 -40 0 -46 -26 -40 -162 l6 -123 -44
95 c-78 170 -88 185 -129 188 -24 2 -40 -2 -50 -14z"/>
</g>
</svg>
